<svg width="557" height="141" viewBox="0 0 557 141" fill="none" xmlns="http://www.w3.org/2000/svg">
<path d="M239.683 74.2676V65.1297H247.662C249.464 65.1297 250.827 64.6883 251.75 63.8054C252.718 62.9225 253.201 61.7527 253.201 60.2959C253.201 58.8392 252.718 57.6694 251.75 56.7865C250.827 55.9036 249.464 55.4622 247.662 55.4622H239.683V45.927H249.772C253.025 45.927 255.883 46.523 258.345 47.7149C260.807 48.9068 262.741 50.5622 264.148 52.6811C265.554 54.8 266.258 57.2721 266.258 60.0973C266.258 62.9225 265.532 65.3946 264.082 67.5135C262.675 69.6324 260.697 71.2878 258.147 72.4797C255.597 73.6716 252.586 74.2676 249.113 74.2676H239.683ZM229 93.073V45.927H242.189V93.073H229ZM254.322 93.073L241.529 72.9432L253.399 70.3608L269.291 93.073H254.322Z" fill="white"/>
<path d="M267.621 93.073L285.492 45.927H298.944L316.617 93.073H302.901L289.778 53.0122H294.526L281.073 93.073H267.621ZM279.227 85.127V74.7973H305.472V85.127H279.227Z" fill="white"/>
<path d="M341.338 93.8676C337.733 93.8676 334.37 93.2716 331.249 92.0797C328.172 90.8437 325.468 89.1221 323.138 86.9149C320.808 84.7077 318.983 82.1252 317.665 79.1676C316.39 76.1658 315.752 72.9212 315.752 69.4338C315.752 65.9023 316.39 62.6577 317.665 59.7C318.983 56.7423 320.786 54.182 323.072 52.0189C325.402 49.8559 328.106 48.1784 331.183 46.9865C334.26 45.7504 337.601 45.1324 341.206 45.1324C344.855 45.1324 348.196 45.7063 351.23 46.8541C354.263 48.0018 356.901 49.591 359.143 51.6216L350.372 60.4946C349.317 59.3468 348.02 58.4419 346.482 57.7797C344.987 57.1176 343.229 56.7865 341.206 56.7865C339.448 56.7865 337.821 57.0734 336.327 57.6473C334.876 58.2212 333.623 59.0599 332.568 60.1635C331.513 61.2671 330.677 62.6135 330.062 64.2027C329.49 65.7477 329.205 67.4914 329.205 69.4338C329.205 71.4203 329.49 73.2081 330.062 74.7973C330.677 76.3423 331.513 77.6667 332.568 78.7703C333.623 79.8739 334.876 80.7347 336.327 81.3527C337.821 81.9266 339.448 82.2135 341.206 82.2135C343.185 82.2135 344.943 81.9045 346.482 81.2865C348.064 80.6685 349.427 79.7635 350.57 78.5716L359.407 87.4446C357.077 89.4752 354.461 91.0644 351.559 92.2122C348.658 93.3158 345.251 93.8676 341.338 93.8676Z" fill="white"/>
<path d="M385.322 93.8676C381.717 93.8676 378.354 93.2716 375.232 92.0797C372.155 90.8437 369.451 89.1221 367.121 86.9149C364.791 84.7077 362.967 82.1252 361.648 79.1676C360.373 76.1658 359.736 72.9212 359.736 69.4338C359.736 65.9023 360.373 62.6577 361.648 59.7C362.967 56.7423 364.769 54.182 367.056 52.0189C369.385 49.8559 372.089 48.1784 375.167 46.9865C378.244 45.7504 381.585 45.1324 385.19 45.1324C388.839 45.1324 392.18 45.7063 395.213 46.8541C398.247 48.0018 400.884 49.591 403.126 51.6216L394.356 60.4946C393.301 59.3468 392.004 58.4419 390.465 57.7797C388.971 57.1176 387.212 56.7865 385.19 56.7865C383.431 56.7865 381.805 57.0734 380.31 57.6473C378.859 58.2212 377.606 59.0599 376.551 60.1635C375.496 61.2671 374.661 62.6135 374.045 64.2027C373.474 65.7477 373.188 67.4914 373.188 69.4338C373.188 71.4203 373.474 73.2081 374.045 74.7973C374.661 76.3423 375.496 77.6667 376.551 78.7703C377.606 79.8739 378.859 80.7347 380.31 81.3527C381.805 81.9266 383.431 82.2135 385.19 82.2135C387.168 82.2135 388.927 81.9045 390.465 81.2865C392.048 80.6685 393.411 79.7635 394.554 78.5716L403.39 87.4446C401.06 89.4752 398.444 91.0644 395.543 92.2122C392.641 93.3158 389.234 93.8676 385.322 93.8676Z" fill="white"/>
<path d="M429.305 94C425.612 94 422.205 93.382 419.084 92.1459C416.007 90.9099 413.303 89.1883 410.973 86.9811C408.687 84.7739 406.907 82.1694 405.632 79.1676C404.357 76.1658 403.719 72.9212 403.719 69.4338C403.719 65.9023 404.335 62.6577 405.566 59.7C406.841 56.7423 408.621 54.1599 410.907 51.9527C413.193 49.7455 415.875 48.0459 418.952 46.8541C422.074 45.618 425.481 45 429.173 45C432.866 45 436.251 45.618 439.329 46.8541C442.45 48.0459 445.154 49.7455 447.44 51.9527C449.726 54.1599 451.484 56.7644 452.715 59.7662C453.99 62.7239 454.627 65.9685 454.627 69.5C454.627 72.9874 453.99 76.232 452.715 79.2338C451.484 82.1914 449.726 84.7959 447.44 87.0473C445.154 89.2545 442.472 90.9761 439.395 92.2122C436.317 93.4041 432.954 94 429.305 94ZM429.173 82.3459C431.635 82.3459 433.767 81.8162 435.57 80.7568C437.372 79.6973 438.757 78.1964 439.724 76.2541C440.691 74.3117 441.175 72.0383 441.175 69.4338C441.175 67.4914 440.889 65.7477 440.318 64.2027C439.79 62.6135 438.999 61.2671 437.944 60.1635C436.889 59.0158 435.614 58.155 434.119 57.5811C432.668 56.9631 431.02 56.6541 429.173 56.6541C426.712 56.6541 424.579 57.1838 422.777 58.2432C420.974 59.2586 419.59 60.7374 418.623 62.6797C417.655 64.5779 417.172 66.8293 417.172 69.4338C417.172 71.4203 417.436 73.2081 417.963 74.7973C418.535 76.3865 419.348 77.755 420.403 78.9027C421.458 80.0063 422.711 80.8671 424.162 81.4851C425.656 82.059 427.327 82.3459 429.173 82.3459Z" fill="white"/>
<path d="M484.043 94C480.35 94 476.943 93.382 473.822 92.1459C470.745 90.9099 468.041 89.1883 465.711 86.9811C463.425 84.7739 461.645 82.1694 460.37 79.1676C459.095 76.1658 458.457 72.9212 458.457 69.4338C458.457 65.9023 459.073 62.6577 460.304 59.7C461.579 56.7423 463.359 54.1599 465.645 51.9527C467.931 49.7455 470.613 48.0459 473.69 46.8541C476.811 45.618 480.219 45 483.911 45C487.604 45 490.989 45.618 494.067 46.8541C497.188 48.0459 499.892 49.7455 502.178 51.9527C504.464 54.1599 506.222 56.7644 507.453 59.7662C508.728 62.7239 509.365 65.9685 509.365 69.5C509.365 72.9874 508.728 76.232 507.453 79.2338C506.222 82.1914 504.464 84.7959 502.178 87.0473C499.892 89.2545 497.21 90.9761 494.133 92.2122C491.055 93.4041 487.692 94 484.043 94ZM483.911 82.3459C486.373 82.3459 488.505 81.8162 490.308 80.7568C492.11 79.6973 493.495 78.1964 494.462 76.2541C495.429 74.3117 495.913 72.0383 495.913 69.4338C495.913 67.4914 495.627 65.7477 495.056 64.2027C494.528 62.6135 493.737 61.2671 492.682 60.1635C491.627 59.0158 490.352 58.155 488.857 57.5811C487.406 56.9631 485.758 56.6541 483.911 56.6541C481.449 56.6541 479.317 57.1838 477.515 58.2432C475.712 59.2586 474.328 60.7374 473.36 62.6797C472.393 64.5779 471.91 66.8293 471.91 69.4338C471.91 71.4203 472.173 73.2081 472.701 74.7973C473.273 76.3865 474.086 77.755 475.141 78.9027C476.196 80.0063 477.449 80.8671 478.9 81.4851C480.394 82.059 482.065 82.3459 483.911 82.3459Z" fill="white"/>
<path d="M514.796 93.073V45.927H524.028L527.985 55.8595V93.073H514.796ZM547.109 93.073L519.874 58.7068L524.028 45.927L551.263 80.2932L547.109 93.073ZM547.109 93.073L543.811 82.6108V45.927H557V93.073H547.109Z" fill="white"/>
<path d="M19.3535 0.268474C27.447 -1.84244 44.3369 8.71442 61.5791 24.1972C60.8754 22.7897 59.2567 19.4813 58.4121 17.5107C68.6065 14.0231 84.2978 13.4559 91.8418 13.6132C99.3858 13.4559 115.077 14.0231 125.271 17.5107C124.427 19.4813 122.808 22.7897 122.104 24.1972C139.347 8.71446 156.237 -1.84236 164.33 0.268474C172.423 2.37993 168.553 28.4193 161.163 38.6239C165.386 24.1967 168.904 6.25106 163.274 4.13957C157.644 2.02847 143.217 8.71436 132.66 24.1972C155.884 38.6243 160.108 60.7923 169.608 67.4784C164.541 67.4783 151.78 65.1328 146.032 63.9599L126.679 57.2743L104.51 73.8124C102.398 72.522 100.146 65.3668 108.028 47.0693C98.5278 57.2737 98.5273 68.1822 98.5273 73.8124C98.5275 79.4424 101.695 82.2584 101.343 84.7216C100.999 87.1252 99.6502 86.1789 99.5859 108.386C97.4564 107.271 94.9284 106.621 92.2148 106.621C89.1775 106.621 86.371 107.432 84.0977 108.803C84.0492 86.167 82.6866 87.1401 82.3408 84.7216C81.9889 82.2584 85.1561 79.4424 85.1562 73.8124C85.1562 68.1822 85.1558 57.2737 75.6553 47.0693C83.5373 65.367 81.2851 72.5221 79.1738 73.8124L57.0049 57.2743L37.6514 63.9599C31.9039 65.1328 19.1425 67.4784 14.0752 67.4784C23.5759 60.7923 27.7993 38.6244 51.0234 24.1972C40.467 8.7143 26.0394 2.02839 20.4092 4.13957C14.7791 6.25106 18.298 24.1967 22.5205 38.6239C15.1309 28.4193 11.2602 2.37993 19.3535 0.268474Z" fill="#3291C9"/>
<path d="M81.3061 94.3057C84.6241 94.3057 86.2201 100.485 87.1293 107.423C82.0687 109.081 78.4918 113.138 78.4916 117.882C78.4919 123.337 83.2209 127.885 89.4984 128.92C89.159 130.59 87.2841 131.254 83.4174 131.254C77.7866 131.253 60.546 117.53 61.2494 111.196C61.9532 104.863 73.9164 94.6581 81.3061 94.3057Z" fill="white"/>
<path d="M103.258 94.3057C110.647 94.6576 122.612 104.862 123.315 111.196C124.019 117.53 106.777 131.254 101.146 131.254C97.263 131.254 95.3896 130.584 95.0625 128.897C101.275 127.822 105.938 123.299 105.938 117.881C105.938 113.177 102.422 109.149 97.4297 107.465C98.3377 100.511 99.9334 94.3065 103.258 94.3057Z" fill="white"/>
<path d="M92.0068 111.196C95.7074 111.196 99.0019 112.561 101.128 114.686C101.691 115.25 101.243 116.122 100.445 116.122H83.5672C82.77 116.122 82.3212 115.25 82.885 114.686C85.011 112.561 88.306 111.196 92.0068 111.196Z" fill="white"/>
<path d="M104.392 134.42C102.167 137.762 97.9073 140.023 93.0156 140.023C88.1237 140.023 83.8636 137.762 81.6387 134.42C84.8322 135.73 88.7634 136.505 93.0156 136.505C97.2675 136.505 101.198 135.73 104.392 134.42Z" fill="white"/>
<path d="M19.3537 80.6382C24.7024 92.7431 45.0414 106.56 54.5424 111.956C28.0805 102.666 9.97011 90.2564 4.22264 85.2127H13.0198C9.38363 83.1014 1.68905 78.3157 0 76.0637C9.2898 74.6561 20.9959 66.3282 25.6877 62.3401C25.4531 62.3401 23.9986 62.129 20.0575 61.2844C22.1688 61.6363 26.3915 60.5807 33.0773 56.0062C38.426 52.3465 46.8009 51.4316 50.3197 51.4316C50.2024 50.6106 48.9122 48.4054 44.6896 46.1533C59.6095 43.3382 69.6735 55.7716 72.8405 62.3401V51.4316C86.2121 65.5071 79.8782 77.1193 77.415 77.4712C74.9518 77.8231 59.4688 62.3401 52.0792 62.3401C44.6896 62.3401 41.1707 67.9703 19.3537 80.6382Z" fill="white"/>
<path d="M164.48 80.6382C159.132 92.7431 138.793 106.56 129.292 111.956C155.753 102.666 173.864 90.2564 179.611 85.2127H170.814C174.45 83.1014 182.145 78.3157 183.834 76.0637C174.544 74.6561 162.838 66.3282 158.146 62.3401C158.381 62.3401 159.835 62.129 163.776 61.2844C161.665 61.6363 157.443 60.5807 150.757 56.0062C145.408 52.3465 137.033 51.4316 133.514 51.4316C133.632 50.6106 134.922 48.4054 139.144 46.1533C124.224 43.3382 114.16 55.7716 110.994 62.3401V51.4316C97.6218 65.5071 103.956 77.1193 106.419 77.4712C108.882 77.8231 124.365 62.3401 131.755 62.3401C139.144 62.3401 142.663 67.9703 164.48 80.6382Z" fill="white"/>
<path d="M127.161 69.6748C127.716 70.8029 128.026 72.0493 128.026 73.3613C128.026 78.4138 123.458 82.5095 117.822 82.5098C116.475 82.5097 115.189 82.2732 114.011 81.8477L114.608 79.6123C114.967 79.6656 115.335 79.6943 115.711 79.6943C119.403 79.6941 122.396 77.0165 122.396 73.7129C122.396 73.2834 122.344 72.8648 122.248 72.4609L127.161 69.6748Z" fill="white"/>
<path d="M57.167 69.6748C56.6122 70.8029 56.3018 72.0493 56.3018 73.3613C56.302 78.4138 60.8704 82.5095 66.5059 82.5098C67.8535 82.5097 69.1396 82.2732 70.3174 81.8477L69.7197 79.6123C69.3611 79.6655 68.9927 79.6943 68.6172 79.6943C64.925 79.6941 61.9318 77.0164 61.9316 73.7129C61.9317 73.2834 61.9839 72.8648 62.0801 72.4609L57.167 69.6748Z" fill="white"/>
</svg>
